<?xml version="1.0" encoding="UTF-8" standalone="no"?>
<!DOCTYPE svg PUBLIC "-//W3C//DTD SVG 1.0//EN" "http://www.w3.org/TR/2001/REC-SVG-20010904/DTD/svg10.dtd">
<svg version="1.0" xmlns="http://www.w3.org/2000/svg" width="175" height="491">
  <defs>
    <clipPath id="clip1">
      <path d="M5 468.02c0 22.7 34 22.7 34 0v-267c0 -22.7 -34 -22.7 -34 0z m0 -301c0 22.7 34 22.7 34 0v-139c0 -22.7 -34 -22.7 -34 0z"/>
    </clipPath>
    <style type="text/css">
      .locus { fill:url(#lograd); }
      .dark1 { fill:url(#d1grad); }
      .dark2 { fill:url(#d2grad); }
      .line  { stroke:#EEE; stroke-width:1; }
      .text  { font-size: 12px; fill: #000; font-family: DejaVu Sans Condensed; }
    </style>
    <linearGradient id="lograd" x1="0%" y1="0%" x2="100%" y2="0%">
      <stop offset="0%"   style="stop-color:#FFF"/>
      <stop offset="50%"  style="stop-color:#FFF"/>
      <stop offset="100%" style="stop-color:#FFF"/>
    </linearGradient>
    <linearGradient id="d1grad" x1="0%" y1="0%" x2="100%" y2="0%">
      <stop offset="0%"   style="stop-color:#EEE"/>
      <stop offset="50%"  style="stop-color:#EEE"/>
      <stop offset="100%" style="stop-color:#EEE"/>
    </linearGradient>
    <linearGradient id="d2grad" x1="0%" y1="0%" x2="100%" y2="0%">
      <stop offset="0%"   style="stop-color:#CCC"/>
      <stop offset="50%"  style="stop-color:#CCC"/>
      <stop offset="100%" style="stop-color:#CCC"/>
    </linearGradient>
    <linearGradient id="bgrad" x1="0%" y1="0%" x2="100%" y2="0%">
      <stop offset="0%"   style="stop-color:#222"/>
      <stop offset="50%"  style="stop-color:#222"/>
      <stop offset="100%" style="stop-color:#222"/>
    </linearGradient>
  </defs>
 <g id="Layer 1">

     <g id="locii" clip-path="url(#clip1)">
	 <rect x="0" y="0" width="40" height="773" fill="url(#bgrad)"/>
	 <path class="locus" d="M0 469.9h40v-8.82h-40z"/>
	 <path class="locus" d="M0 445.96h40v-12.6h-40z"/>
	 <path class="locus" d="M0 415.72h40v-11.34h-40z"/>
	 <path class="locus" d="M0 393.04h40v-6.3h-40z"/>
	 <path class="locus" d="M0 382.96h40v-7.56h-40z"/>
	 <path class="locus" d="M0 369.1h40v-11.34h-40z"/>
	 <path class="locus" d="M0 348.94h40v-11.34h-40z"/>
	 <path class="locus" d="M0 328.78h40v-8.82h-40z"/>
	 <path class="locus" d="M0 297.28h40v-13.86h-40z"/>
	 <path class="locus" d="M0 277.12h40v-8.82h-40z"/>
	 <path class="locus" d="M0 262h40v-20.16h-40z"/>
	 <path class="locus" d="M0 220.42h40v-10.08h-40z"/>
	 <path class="dark2" d="M0 197.74h40v-21.42h-40z"/>
	 <path class="locus" d="M0 164.98h40v-8.82h-40z"/>
	 <path class="locus" d="M0 152.38h40v-10.08h-40z"/>
	 <path class="locus" d="M0 127.18h40v-13.86h-40z"/>
	 <path class="locus" d="M0 110.8h40v-8.82h-40z"/>
	 <path class="locus" d="M0 90.64h40v-8.82h-40z"/>
	 <path class="locus" d="M0 66.7h40v-7.56h-40z"/>
	 <path class="locus" d="M0 56.62h40v-15.12h-40z"/>
	 <path class="locus" d="M0 30.16h40v-8.82h-40z"/>
</g>

 </g>
</svg>
