<?xml version="1.0" encoding="UTF-8" standalone="no"?>
<!DOCTYPE svg PUBLIC "-//W3C//DTD SVG 1.0//EN" "http://www.w3.org/TR/2001/REC-SVG-20010904/DTD/svg10.dtd">
<svg version="1.0" xmlns="http://www.w3.org/2000/svg" width="175" height="743">
  <defs>
    <clipPath id="clip1">
      <path d="M5 720c0 22.7 34 22.7 34 0v-412c0 -22.7 -34 -22.7 -34 0z m0 -446c0 22.7 34 22.7 34 0v-248c0 -22.7 -34 -22.7 -34 0z"/>
    </clipPath>
    <style type="text/css">
      .locus { fill:url(#lograd); }
      .dark1 { fill:url(#d1grad); }
      .dark2 { fill:url(#d2grad); }
      .line  { stroke:#EEE; stroke-width:1; }
      .text  { font-size: 12px; fill: #000; font-family: DejaVu Sans Condensed; }
    </style>
    <linearGradient id="lograd" x1="0%" y1="0%" x2="100%" y2="0%">
      <stop offset="0%"   style="stop-color:#FFF"/>
      <stop offset="50%"  style="stop-color:#FFF"/>
      <stop offset="100%" style="stop-color:#FFF"/>
    </linearGradient>
    <linearGradient id="d1grad" x1="0%" y1="0%" x2="100%" y2="0%">
      <stop offset="0%"   style="stop-color:#EEE"/>
      <stop offset="50%"  style="stop-color:#EEE"/>
      <stop offset="100%" style="stop-color:#EEE"/>
    </linearGradient>
    <linearGradient id="d2grad" x1="0%" y1="0%" x2="100%" y2="0%">
      <stop offset="0%"   style="stop-color:#CCC"/>
      <stop offset="50%"  style="stop-color:#CCC"/>
      <stop offset="100%" style="stop-color:#CCC"/>
    </linearGradient>
    <linearGradient id="bgrad" x1="0%" y1="0%" x2="100%" y2="0%">
      <stop offset="0%"   style="stop-color:#222"/>
      <stop offset="50%"  style="stop-color:#222"/>
      <stop offset="100%" style="stop-color:#222"/>
    </linearGradient>
  </defs>
 <g id="Layer 1">

     <g id="locii" clip-path="url(#clip1)">
	 <rect x="0" y="0" width="40" height="773" fill="url(#bgrad)"/>
	 <path class="locus" d="M0 720.58h40v-5.04h-40z"/>
	 <path class="locus" d="M0 700.42h40v-15.12h-40z"/>
	 <path class="locus" d="M0 682.78h40v-11.34h-40z"/>
	 <path class="locus" d="M0 652.54h40v-16.38h-40z"/>
	 <path class="locus" d="M0 623.56h40v-6.3h-40z"/>
	 <path class="locus" d="M0 598.36h40v-16.38h-40z"/>
	 <path class="locus" d="M0 575.68h40v-16.38h-40z"/>
	 <path class="locus" d="M0 551.74h40v-8.82h-40z"/>
	 <path class="locus" d="M0 517.72h40v-17.64h-40z"/>
	 <path class="locus" d="M0 488.74h40v-12.6h-40z"/>
	 <path class="locus" d="M0 461.02h40v-2.52h-40z"/>
	 <path class="locus" d="M0 453.46h40v-7.56h-40z"/>
	 <path class="locus" d="M0 443.38h40v-13.86h-40z"/>
	 <path class="locus" d="M0 423.22h40v-10.08h-40z"/>
	 <path class="locus" d="M0 400.54h40v-13.86h-40z"/>
	 <path class="locus" d="M0 371.56h40v-11.34h-40z"/>
	 <path class="locus" d="M0 347.62h40v-8.82h-40z"/>
	 <path class="locus" d="M0 332.5h40v-12.6h-40z"/>
	 <path class="dark2" d="M0 306.04h40v-22.68h-40z"/>
	 <path class="locus" d="M0 260.68h40v-25.2h-40z"/>
	 <path class="locus" d="M0 230.44h40v-6.3h-40z"/>
	 <path class="locus" d="M0 215.32h40v-8.82h-40z"/>
	 <path class="locus" d="M0 196.42h40v-12.6h-40z"/>
	 <path class="locus" d="M0 180.04h40v-12.6h-40z"/>
	 <path class="locus" d="M0 149.8h40v-10.08h-40z"/>
	 <path class="locus" d="M0 133.42h40v-13.86h-40z"/>
	 <path class="locus" d="M0 113.26h40v-6.3h-40z"/>
	 <path class="locus" d="M0 95.62h40v-12.6h-40z"/>
	 <path class="locus" d="M0 76.72h40v-12.6h-40z"/>
	 <path class="locus" d="M0 43.96h40v-8.82h-40z"/>
</g>


 </g>
</svg>
