<?xml version="1.0" encoding="UTF-8" standalone="no"?>
<!DOCTYPE svg PUBLIC "-//W3C//DTD SVG 1.0//EN" "http://www.w3.org/TR/2001/REC-SVG-20010904/DTD/svg10.dtd">
<svg version="1.0" xmlns="http://www.w3.org/2000/svg" width="175" height="605">
  <defs>
    <clipPath id="clip1">
      <path d="M5 582c0 22.7 34 22.7 34 0v-289c0 -22.7 -34 -22.7 -34 0z m0 -323c0 22.7 34 22.7 34 0v-231c0 -22.7 -34 -22.7 -34 0z"/>
    </clipPath>
    <style type="text/css">
      .locus { fill:url(#lograd); }
      .dark1 { fill:url(#d1grad); }
      .dark2 { fill:url(#d2grad); }
      .line  { stroke:#EEE; stroke-width:1; }
      .text  { font-size: 12px; fill: #000; font-family: DejaVu Sans Condensed; }
    </style>
    <linearGradient id="lograd" x1="0%" y1="0%" x2="100%" y2="0%">
      <stop offset="0%"   style="stop-color:#FFF"/>
      <stop offset="50%"  style="stop-color:#FFF"/>
      <stop offset="100%" style="stop-color:#FFF"/>
    </linearGradient>
    <linearGradient id="d1grad" x1="0%" y1="0%" x2="100%" y2="0%">
      <stop offset="0%"   style="stop-color:#EEE"/>
      <stop offset="50%"  style="stop-color:#EEE"/>
      <stop offset="100%" style="stop-color:#EEE"/>
    </linearGradient>
    <linearGradient id="d2grad" x1="0%" y1="0%" x2="100%" y2="0%">
      <stop offset="0%"   style="stop-color:#CCC"/>
      <stop offset="50%"  style="stop-color:#CCC"/>
      <stop offset="100%" style="stop-color:#CCC"/>
    </linearGradient>
    <linearGradient id="bgrad" x1="0%" y1="0%" x2="100%" y2="0%">
      <stop offset="0%"   style="stop-color:#222"/>
      <stop offset="50%"  style="stop-color:#222"/>
      <stop offset="100%" style="stop-color:#222"/>
    </linearGradient>
  </defs>
 <g id="Layer 1">

     <g id="locii" clip-path="url(#clip1)">
	 <rect x="0" y="0" width="40" height="773" fill="url(#bgrad)"/>
	 <path class="locus" d="M0 577.54h40v-15.12h-40z"/>
	 <path class="locus" d="M0 554.86h40v-6.3h-40z"/>
	 <path class="locus" d="M0 542.26h40v-7.56h-40z"/>
	 <path class="locus" d="M0 527.14h40v-11.34h-40z"/>
	 <path class="locus" d="M0 508.24h40v-18.9h-40z"/>
	 <path class="locus" d="M0 485.56h40v-5.04h-40z"/>
	 <path class="locus" d="M0 475.48h40v-7.56h-40z"/>
	 <path class="locus" d="M0 457.84h40v-17.64h-40z"/>
	 <path class="locus" d="M0 428.86h40v-8.82h-40z"/>
	 <path class="locus" d="M0 413.74h40v-12.6h-40z"/>
	 <path class="locus" d="M0 389.8h40v-7.56h-40z"/>
	 <path class="locus" d="M0 374.68h40v-8.82h-40z"/>
	 <path class="locus" d="M0 360.82h40v-10.08h-40z"/>
	 <path class="locus" d="M0 345.7h40v-11.34h-40z"/>
	 <path class="locus" d="M0 328.06h40v-10.08h-40z"/>
	 <path class="locus" d="M0 309.16h40v-5.04h-40z"/>
	 <path class="dark1" d="M0 296.56h40v-7.56h-40z"/>
	 <path class="dark2" d="M0 289h40v-15.12h-40z"/>
	 <path class="locus" d="M0 271.36h40v-6.3h-40z"/>
	 <path class="locus" d="M0 258.76h40v-12.6h-40z"/>
	 <path class="locus" d="M0 236.08h40v-11.34h-40z"/>
	 <path class="locus" d="M0 213.4h40v-11.34h-40z"/>
	 <path class="locus" d="M0 186.94h40v-7.56h-40z"/>
	 <path class="locus" d="M0 147.88h40v-8.82h-40z"/>
	 <path class="locus" d="M0 125.2h40v-8.82h-40z"/>
	 <path class="locus" d="M0 112.6h40v-8.82h-40z"/>
	 <path class="locus" d="M0 93.7h40v-10.08h-40z"/>
	 <path class="locus" d="M0 78.58h40v-15.12h-40z"/>
	 <path class="locus" d="M0 53.38h40v-6.3h-40z"/>
	 <path class="locus" d="M0 35.74h40v-7.56h-40z"/>
	 <path class="locus" d="M0 23.14h40v-13h-40z"/>
</g>
 </g>
</svg>
