<?xml version="1.0" encoding="UTF-8" standalone="no"?>
<!DOCTYPE svg PUBLIC "-//W3C//DTD SVG 1.0//EN" "http://www.w3.org/TR/2001/REC-SVG-20010904/DTD/svg10.dtd">
<svg version="1.0" xmlns="http://www.w3.org/2000/svg" width="175" height="421">
  <defs>
    <clipPath id="clip1">
      <path d="M5 398.72c0 22.7 34 22.7 34 0v-239c0 -22.7 -34 -22.7 -34 0z m0 -273c0 22.7 34 22.7 34 0v-98c0 -22.7 -34 -22.7 -34 0z"/>
    </clipPath>
    <style type="text/css">
      .locus { fill:url(#lograd); }
      .dark1 { fill:url(#d1grad); }
      .dark2 { fill:url(#d2grad); }
      .line  { stroke:#EEE; stroke-width:1; }
      .text  { font-size: 12px; fill: #000; font-family: DejaVu Sans Condensed; }
    </style>
    <linearGradient id="lograd" x1="0%" y1="0%" x2="100%" y2="0%">
      <stop offset="0%"   style="stop-color:#FFF"/>
      <stop offset="50%"  style="stop-color:#FFF"/>
      <stop offset="100%" style="stop-color:#FFF"/>
    </linearGradient>
    <linearGradient id="d1grad" x1="0%" y1="0%" x2="100%" y2="0%">
      <stop offset="0%"   style="stop-color:#EEE"/>
      <stop offset="50%"  style="stop-color:#EEE"/>
      <stop offset="100%" style="stop-color:#EEE"/>
    </linearGradient>
    <linearGradient id="d2grad" x1="0%" y1="0%" x2="100%" y2="0%">
      <stop offset="0%"   style="stop-color:#CCC"/>
      <stop offset="50%"  style="stop-color:#CCC"/>
      <stop offset="100%" style="stop-color:#CCC"/>
    </linearGradient>
    <linearGradient id="bgrad" x1="0%" y1="0%" x2="100%" y2="0%">
      <stop offset="0%"   style="stop-color:#222"/>
      <stop offset="50%"  style="stop-color:#222"/>
      <stop offset="100%" style="stop-color:#222"/>
    </linearGradient>
  </defs>
  <g id="locii" clip-path="url(#clip1)">
    <rect x="0" y="0" width="40" height="773" fill="url(#bgrad)"/>
    <path class="locus" d="M0 399.34h40v-11.34h-40z"/>
    <path class="locus" d="M0 374.14h40v-6.3h-40z"/>
    <path class="locus" d="M0 357.76h40v-6.3h-40z"/>
    <path class="locus" d="M0 345.16h40v-13.86h-40z"/>
    <path class="locus" d="M0 328.78h40v-6.29h-40z"/>
    <path class="locus" d="M0 318.7h40v-7.56h-40z"/>
    <path class="locus" d="M0 307.36h40v-10.07h-40z"/>
    <path class="locus" d="M0 289.72h40v-11.34h-40z"/>
    <path class="locus" d="M0 272.08h40v-11.33h-40z"/>
    <path class="locus" d="M0 244.36h40v-10.07h-40z"/>
    <path class="locus" d="M0 215.38h40v-12.59h-40z"/>
    <path class="locus" d="M0 199h40v-17.64h-40z"/>
    <path class="locus" d="M0 173.8h40v-8.81h-40z"/>
    <path class="dark2" d="M0 153.64h40v-22.68h-40z"/>
    <path class="locus" d="M0 122.14h40v-8.81h-40z"/>
    <path class="locus" d="M0 104.5h40v-11.33h-40z"/>
    <path class="locus" d="M0 90.64h40v-7.56h-40z"/>
    <path class="locus" d="M0 78.04h40v-10.07h-40z"/>
    <path class="locus" d="M0 55.36h40v-13.86h-40z"/>
    <path class="locus" d="M0 26.38h40v-5.04h-40z"/>
  </g>
</svg>
