<?xml version="1.0" encoding="UTF-8" standalone="no"?>
<!DOCTYPE svg PUBLIC "-//W3C//DTD SVG 1.0//EN" "http://www.w3.org/TR/2001/REC-SVG-20010904/DTD/svg10.dtd">
<svg version="1.0" xmlns="http://www.w3.org/2000/svg" width="175" height="226">
  <defs>
    <clipPath id="clip1">
      <path d="M5 203.42c0 22.7 34 22.7 34 0v-75c0 -22.7 -34 -22.7 -34 0z m0 -109c0 22.7 34 22.7 34 0v-66c0 -22.7 -34 -22.7 -34 0z"/>
    </clipPath>
    <style type="text/css">
      .locus { fill:url(#lograd); }
      .dark1 { fill:url(#d1grad); }
      .dark2 { fill:url(#d2grad); }
      .line  { stroke:#EEE; stroke-width:1; }
      .text  { font-size: 12px; fill: #000; font-family: DejaVu Sans Condensed; }
    </style>
    <linearGradient id="lograd" x1="0%" y1="0%" x2="100%" y2="0%">
      <stop offset="0%"   style="stop-color:#FFF"/>
      <stop offset="50%"  style="stop-color:#FFF"/>
      <stop offset="100%" style="stop-color:#FFF"/>
    </linearGradient>
    <linearGradient id="d1grad" x1="0%" y1="0%" x2="100%" y2="0%">
      <stop offset="0%"   style="stop-color:#EEE"/>
      <stop offset="50%"  style="stop-color:#EEE"/>
      <stop offset="100%" style="stop-color:#EEE"/>
    </linearGradient>
    <linearGradient id="d2grad" x1="0%" y1="0%" x2="100%" y2="0%">
      <stop offset="0%"   style="stop-color:#CCC"/>
      <stop offset="50%"  style="stop-color:#CCC"/>
      <stop offset="100%" style="stop-color:#CCC"/>
    </linearGradient>
    <linearGradient id="bgrad" x1="0%" y1="0%" x2="100%" y2="0%">
      <stop offset="0%"   style="stop-color:#222"/>
      <stop offset="50%"  style="stop-color:#222"/>
      <stop offset="100%" style="stop-color:#222"/>
    </linearGradient>
  </defs>
 <g id="Layer 1">

     <g id="locii" clip-path="url(#clip1)">
	 <rect x="0" y="0" width="40" height="773" fill="url(#bgrad)"/>
	 <path class="locus" d="M0 210.34h40v-8.81h-40z"/>
	 <path class="locus" d="M0 195.22h40v-12.59h-40z"/>
	 <path class="locus" d="M0 172.54h40v-5.03h-40z"/>
	 <path class="locus" d="M0 159.94h40v-10.07h-40z"/>
	 <path class="dark1" d="M0 141.04h40v-10.07h-40z"/>
	 <path class="dark2" d="M0 130.96h40v-28.98h-40z"/>
	 <path class="dark1" d="M0 101.98h40v-11.34h-40z"/>
	 <path class="locus" d="M0 71.74h40v-8.81h-40z"/>
	 <path class="locus" d="M0 54.1h40v-15.12h-40z"/>
</g>
 </g>
</svg>
