<?xml version="1.0" encoding="UTF-8" standalone="no"?>
<!DOCTYPE svg PUBLIC "-//W3C//DTD SVG 1.0//EN" "http://www.w3.org/TR/2001/REC-SVG-20010904/DTD/svg10.dtd">
<svg version="1.0" xmlns="http://www.w3.org/2000/svg" width="175" height="527">
  <defs>
    <clipPath id="clip1">
      <path d="M5 504.56c0 22.7 34 22.7 34 0v-297c0 -22.7 -34 -22.7 -34 0z m0 -331c0 22.7 34 22.7 34 0v-146c0 -22.7 -34 -22.7 -34 0z"/>
    </clipPath>
   <style type="text/css">
      .locus { fill:url(#lograd); }
      .dark1 { fill:url(#d1grad); }
      .dark2 { fill:url(#d2grad); }
      .line  { stroke:#EEE; stroke-width:1; }
      .text  { font-size: 12px; fill: #000; font-family: DejaVu Sans Condensed; }
    </style>
    <linearGradient id="lograd" x1="0%" y1="0%" x2="100%" y2="0%">
      <stop offset="0%"   style="stop-color:#FFF"/>
      <stop offset="50%"  style="stop-color:#FFF"/>
      <stop offset="100%" style="stop-color:#FFF"/>
    </linearGradient>
    <linearGradient id="d1grad" x1="0%" y1="0%" x2="100%" y2="0%">
      <stop offset="0%"   style="stop-color:#EEE"/>
      <stop offset="50%"  style="stop-color:#EEE"/>
      <stop offset="100%" style="stop-color:#EEE"/>
    </linearGradient>
    <linearGradient id="d2grad" x1="0%" y1="0%" x2="100%" y2="0%">
      <stop offset="0%"   style="stop-color:#CCC"/>
      <stop offset="50%"  style="stop-color:#CCC"/>
      <stop offset="100%" style="stop-color:#CCC"/>
    </linearGradient>
    <linearGradient id="bgrad" x1="0%" y1="0%" x2="100%" y2="0%">
      <stop offset="0%"   style="stop-color:#222"/>
      <stop offset="50%"  style="stop-color:#222"/>
      <stop offset="100%" style="stop-color:#222"/>
    </linearGradient>
  </defs>
 <g id="Layer 1">

     <g id="locii" clip-path="url(#clip1)">
	 <rect x="0" y="0" width="40" height="773" fill="url(#bgrad)"/>
	 <path class="locus" d="M0 502.92h40v-8.82h-40z"/>
	 <path class="locus" d="M0 478.72h40v-10.08h-40z"/>
	 <path class="locus" d="M0 458.56h40v-8.82h-40z"/>
	 <path class="locus" d="M0 442.18h40v-10.08h-40z"/>
	 <path class="locus" d="M0 422.02h40v-11.34h-40z"/>
	 <path class="locus" d="M0 396.82h40v-15.12h-40z"/>
	 <path class="locus" d="M0 372.88h40v-15.12h-40z"/>
	 <path class="locus" d="M0 351.46h40v-11.34h-40z"/>
	 <path class="locus" d="M0 312.4h40v-15.12h-40z"/>
	 <path class="locus" d="M0 293.5h40v-18.9h-40z"/>
	 <path class="locus" d="M0 259.48h40v-10.08h-40z"/>
	 <path class="locus" d="M0 244.36h40v-15.12h-40z"/>
	 <path class="locus" d="M0 220.42h40v-21.42h-40z"/>
	 <path class="dark2" d="M0 195.22h40v-11.34h-40z"/>
	 <path class="locus" d="M0 181.36h40v-11.34h-40z"/>
	 <path class="locus" d="M0 167.5h40v-16.38h-40z"/>
	 <path class="locus" d="M0 128.44h40v-7.56h-40z"/>
	 <path class="locus" d="M0 104.5h40v-6.3h-40z"/>
	 <path class="locus" d="M0 93.16h40v-12.6h-40z"/>
	 <path class="locus" d="M0 71.74h40v-17.64h-40z"/>
	 <path class="locus" d="M0 49.0599999999999h40v-7.56h-40z"/>
	 <path class="locus" d="M0 38.98h40v-10.08h-40z"/>
	 <path class="locus" d="M0 21.3399999999999h40v-5.04h-40z"/>
</g>


 </g>
</svg>
