<?xml version="1.0" encoding="UTF-8" standalone="no"?>
<!DOCTYPE svg PUBLIC "-//W3C//DTD SVG 1.0//EN" "http://www.w3.org/TR/2001/REC-SVG-20010904/DTD/svg10.dtd">
<svg version="1.0" xmlns="http://www.w3.org/2000/svg" width="175" height="397">
  <defs>
    <clipPath id="clip1">
      <path d="M5 374.78c0 22.7 34 22.7 34 0v-244c0 -22.7 -34 -22.7 -34 0z m0 -278c0 22.7 34 22.7 34 0v-69c0 -22.7 -34 -22.7 -34 0z"/>
    </clipPath>
    <style type="text/css">
      .locus { fill:url(#lograd); }
      .dark1 { fill:url(#d1grad); }
      .dark2 { fill:url(#d2grad); }
      .line  { stroke:#EEE; stroke-width:1; }
      .text  { font-size: 12px; fill: #000; font-family: DejaVu Sans Condensed; }
    </style>
    <linearGradient id="lograd" x1="0%" y1="0%" x2="100%" y2="0%">
      <stop offset="0%"   style="stop-color:#FFF"/>
      <stop offset="50%"  style="stop-color:#FFF"/>
      <stop offset="100%" style="stop-color:#FFF"/>
    </linearGradient>
    <linearGradient id="d1grad" x1="0%" y1="0%" x2="100%" y2="0%">
      <stop offset="0%"   style="stop-color:#EEE"/>
      <stop offset="50%"  style="stop-color:#EEE"/>
      <stop offset="100%" style="stop-color:#EEE"/>
    </linearGradient>
    <linearGradient id="d2grad" x1="0%" y1="0%" x2="100%" y2="0%">
      <stop offset="0%"   style="stop-color:#CCC"/>
      <stop offset="50%"  style="stop-color:#CCC"/>
      <stop offset="100%" style="stop-color:#CCC"/>
    </linearGradient>
    <linearGradient id="bgrad" x1="0%" y1="0%" x2="100%" y2="0%">
      <stop offset="0%"   style="stop-color:#222"/>
      <stop offset="50%"  style="stop-color:#222"/>
      <stop offset="100%" style="stop-color:#222"/>
    </linearGradient>
  </defs>
 <g id="Layer 1">

     <g id="locii" clip-path="url(#clip1)">
	 <rect x="0" y="0" width="40" height="773" fill="url(#bgrad)"/>
	 <path class="locus" d="M0 377.92h40v-8.82h-40z"/>
	 <path class="locus" d="M0 351.46h40v-7.56h-40z"/>
	 <path class="locus" d="M0 338.86h40v-7.56h-40z"/>
	 <path class="locus" d="M0 325h40v-6.29h-40z"/>
	 <path class="locus" d="M0 307.36h40v-11.34h-40z"/>
	 <path class="locus" d="M0 269.56h40v-11.34h-40z"/>
	 <path class="locus" d="M0 292.24h40v-10.07h-40z"/>
	 <path class="locus" d="M0 255.7h40v-15.11h-40z"/>
	 <path class="locus" d="M0 231.76h40v-7.56h-40z"/>
	 <path class="locus" d="M0 211.6h40v-8.81h-40z"/>
	 <path class="locus" d="M0 199h40v-10.08h-40z"/>
	 <path class="locus" d="M0 182.62h40v-8.81h-40z"/>
	 <path class="locus" d="M0 156.16h40v-7.56h-40z"/>
	 <path class="locus" d="M0 141.04h40v-22.68h-40z"/>
	 <path class="dark2" d="M0 118.36h40v-11.33h-40z"/>
	 <path class="locus" d="M0 100.72h40v-6.3h-40z"/>
	 <path class="locus" d="M0 88.1199999999999h40v-13.85h-40z"/>
	 <path class="locus" d="M0 71.74h40v-12.59h-40z"/>
	 <path class="locus" d="M0 51.58h40v-7.56h-40z"/>
	 <path class="locus" d="M0 32.64h40v-5.04h-40z"/>
</g>
</g>
</svg>
