<?xml version="1.0" encoding="UTF-8" standalone="no"?>
<!DOCTYPE svg PUBLIC "-//W3C//DTD SVG 1.0//EN" "http://www.w3.org/TR/2001/REC-SVG-20010904/DTD/svg10.dtd">
<svg version="1.0" xmlns="http://www.w3.org/2000/svg" width="175" height="545">
  <defs>
    <clipPath id="clip1">
      <path d="M5 522.2c0 22.7 34 22.7 34 0v-365c0 -22.7 -34 -22.7 -34 0z m0 -399c0 22.7 34 22.7 34 0v-95c0 -22.7 -34 -22.7 -34 0z"/>
    </clipPath>
    <style type="text/css">
      .locus { fill:url(#lograd); }
      .dark1 { fill:url(#d1grad); }
      .dark2 { fill:url(#d2grad); }
      .line  { stroke:#EEE; stroke-width:1; }
      .text  { font-size: 12px; fill: #000; font-family: DejaVu Sans Condensed; }
    </style>
    <linearGradient id="lograd" x1="0%" y1="0%" x2="100%" y2="0%">
      <stop offset="0%"   style="stop-color:#FFF"/>
      <stop offset="50%"  style="stop-color:#FFF"/>
      <stop offset="100%" style="stop-color:#FFF"/>
    </linearGradient>
    <linearGradient id="d1grad" x1="0%" y1="0%" x2="100%" y2="0%">
      <stop offset="0%"   style="stop-color:#EEE"/>
      <stop offset="50%"  style="stop-color:#EEE"/>
      <stop offset="100%" style="stop-color:#EEE"/>
    </linearGradient>
    <linearGradient id="d2grad" x1="0%" y1="0%" x2="100%" y2="0%">
      <stop offset="0%"   style="stop-color:#CCC"/>
      <stop offset="50%"  style="stop-color:#CCC"/>
      <stop offset="100%" style="stop-color:#CCC"/>
    </linearGradient>
    <linearGradient id="bgrad" x1="0%" y1="0%" x2="100%" y2="0%">
      <stop offset="0%"   style="stop-color:#222"/>
      <stop offset="50%"  style="stop-color:#222"/>
      <stop offset="100%" style="stop-color:#222"/>
    </linearGradient>
  </defs>
 <g id="Layer 1">

     <g id="locii" clip-path="url(#clip1)">
	 <rect x="0" y="0" width="40" height="773" fill="url(#bgrad)"/>
	 <path class="locus" d="M0 527.82h40v-12.6h-40z"/>
	 <path class="locus" d="M0 502.62h40v-20.16h-40z"/>
	 <path class="locus" d="M0 471.12h40v-8.82h-40z"/>
	 <path class="locus" d="M0 449.7h40v-15.12h-40z"/>
	 <path class="locus" d="M0 419.46h40v-10.08h-40z"/>
	 <path class="locus" d="M0 391.74h40v-10.08h-40z"/>
	 <path class="locus" d="M0 365.28h40v-13.86h-40z"/>
	 <path class="locus" d="M0 343.86h40v-6.3h-40z"/>
	 <path class="locus" d="M0 331.26h40v-15.12h-40z"/>
	 <path class="locus" d="M0 311.1h40v-10.08h-40z"/>
	 <path class="locus" d="M0 287.16h40v-25.2h-40z"/>
	 <path class="locus" d="M0 255.66h40v-20.16h-40z"/>
	 <path class="locus" d="M0 226.68h40v-10.08h-40z"/>
	 <path class="locus" d="M0 204h40v-10.08h-40z"/>
	 <path class="locus" d="M0 191.4h40v-12.6h-40z"/>
	 <path class="dark2" d="M0 158.64h40v-21.42h-40z"/>
	 <path class="locus" d="M0 137.22h40v-10.08h-40z"/>
	 <path class="locus" d="M0 118.32h40v-10.08h-40z"/>
	 <path class="locus" d="M0 91.8600000000001h40v-12.6h-40z"/>
	 <path class="locus" d="M0 76.7400000000001h40v-12.6h-40z"/>
	 <path class="locus" d="M0 55.3200000000001h40v-12.6h-40z"/>
	 <path class="locus" d="M0 35.16h40v-6.3h-40z"/>
</g>


 </g>
</svg>
