<?xml version="1.0" encoding="UTF-8" standalone="no"?>
<!DOCTYPE svg PUBLIC "-//W3C//DTD SVG 1.0//EN" "http://www.w3.org/TR/2001/REC-SVG-20010904/DTD/svg10.dtd">
<svg version="1.0" xmlns="http://www.w3.org/2000/svg" width="175" height="276">
  <defs>
    <clipPath id="clip1">
      <path d="M5 253.82c0 22.7 34 22.7 34 0v-122c0 -22.7 -34 -22.7 -34 0z m0 -156c0 22.7 34 22.7 34 0v-70c0 -22.7 -34 -22.7 -34 0z"/>
    </clipPath>
    <style type="text/css">
      .locus { fill:url(#lograd); }
      .dark1 { fill:url(#d1grad); }
      .dark2 { fill:url(#d2grad); }
      .line  { stroke:#EEE; stroke-width:1; }
      .text  { font-size: 12px; fill: #000; font-family: DejaVu Sans Condensed; }
    </style>
    <linearGradient id="lograd" x1="0%" y1="0%" x2="100%" y2="0%">
      <stop offset="0%"   style="stop-color:#FFF"/>
      <stop offset="50%"  style="stop-color:#FFF"/>
      <stop offset="100%" style="stop-color:#FFF"/>
    </linearGradient>
    <linearGradient id="d1grad" x1="0%" y1="0%" x2="100%" y2="0%">
      <stop offset="0%"   style="stop-color:#EEE"/>
      <stop offset="50%"  style="stop-color:#EEE"/>
      <stop offset="100%" style="stop-color:#EEE"/>
    </linearGradient>
    <linearGradient id="d2grad" x1="0%" y1="0%" x2="100%" y2="0%">
      <stop offset="0%"   style="stop-color:#CCC"/>
      <stop offset="50%"  style="stop-color:#CCC"/>
      <stop offset="100%" style="stop-color:#CCC"/>
    </linearGradient>
    <linearGradient id="bgrad" x1="0%" y1="0%" x2="100%" y2="0%">
      <stop offset="0%"   style="stop-color:#222"/>
      <stop offset="50%"  style="stop-color:#222"/>
      <stop offset="100%" style="stop-color:#222"/>
    </linearGradient>
  </defs>
 <g id="Layer 1">

     <g id="locii" clip-path="url(#clip1)">
	 <rect x="0" y="0" width="40" height="773" fill="url(#bgrad)"/>
	 <path class="locus" d="M0 264.52h40v-5.04h-40z"/>
	 <path class="locus" d="M0 251.92h40v-5.04h-40z"/>
	 <path class="locus" d="M0 241.84h40v-12.59h-40z"/>
	 <path class="locus" d="M0 220.42h40v-5.03h-40z"/>
	 <path class="locus" d="M0 196.48h40v-15.11h-40z"/>
	 <path class="locus" d="M0 171.28h40v-10.07h-40z"/>
	 <path class="dark1" d="M0 148.6h40v-26.46h-40z"/>
	 <path class="dark2" d="M0 122.14h40v-17.63h-40z"/>
	 <path class="locus" d="M0 89.38h40v-7.56h-40z"/>
	 <path class="locus" d="M0 73h40v-8.82h-40z"/>
	 <path class="locus" d="M0 57.88h40v-6.3h-40z"/>
	 <path class="locus" d="M0 40.24h40v-12.59h-40z"/>
</g>
 </g>
</svg>